<?xml version="1.0" encoding="UTF-8" standalone="no"?>
<svg
   width="14"
   height="14"
   viewBox="0 0 14 14"
   fill="none"
   version="1.1"
   id="svg6"
   sodipodi:docname="x_icon_orange.svg"
   inkscape:version="1.1.1 (3bf5ae0d25, 2021-09-20)"
   xmlns:inkscape="http://www.inkscape.org/namespaces/inkscape"
   xmlns:sodipodi="http://sodipodi.sourceforge.net/DTD/sodipodi-0.dtd"
   xmlns="http://www.w3.org/2000/svg"
   xmlns:svg="http://www.w3.org/2000/svg">
  <defs
     id="defs10" />
  <sodipodi:namedview
     id="namedview8"
     pagecolor="#ffffff"
     bordercolor="#666666"
     borderopacity="1.0"
     inkscape:pageshadow="2"
     inkscape:pageopacity="0.0"
     inkscape:pagecheckerboard="0"
     showgrid="false"
     inkscape:zoom="58.857143"
     inkscape:cx="7"
     inkscape:cy="7.0084951"
     inkscape:window-width="1920"
     inkscape:window-height="1009"
     inkscape:window-x="-8"
     inkscape:window-y="-8"
     inkscape:window-maximized="1"
     inkscape:current-layer="svg6" />
  <path
     d="M1 14C0.744141 14 0.488281 13.9023 0.292969 13.707C-0.0976562 13.3164 -0.0976562 12.6836 0.292969 12.293L12.293 0.292969C12.6836 -0.0976562 13.3164 -0.0976562 13.707 0.292969C14.0977 0.683594 14.0977 1.31641 13.707 1.70703L1.70703 13.707C1.51172 13.9023 1.25586 14 1 14Z"
     fill="#333B41"
     id="path2"
     style="fill:#ff6600" />
  <path
     d="M13 14C12.7441 14 12.4883 13.9023 12.293 13.707L0.292969 1.70703C-0.0976562 1.31641 -0.0976562 0.683594 0.292969 0.292969C0.683594 -0.0976562 1.31641 -0.0976562 1.70703 0.292969L13.707 12.293C14.0977 12.6836 14.0977 13.3164 13.707 13.707C13.5117 13.9023 13.2559 14 13 14Z"
     fill="#333B41"
     id="path4"
     style="fill:#ff6600" />
</svg>
